#!OML:ASF E:/inclinewalkrobotboard/Project1/Captureday1/Session1/subject1.ASF
:FULLY-SPECIFIED
:DEGREES
163
root 0 0 0 -1.162955287637046 -2.8463004225053137 -0.8773639075712707
lowerback 10.947857543427748 0.5614151835187773 0.4708900653282434
upperback -1.1114331073756967 0.8801115055152934 0.9140171651712553
thorax -7.290367953412896 0.4048516934124458 0.4491728705380606
lowerneck -13.40498533457237 -1.4102568835516998 0.2148662350202422
upperneck 19.046034536189417 -1.4106926371541197 -2.348927330911002
head 8.212126941638678 -0.8112655428926816 -1.0036742943067676
rclavicle -4.589861764888024E-16 -2.3796994295258746E-16
rhumerus -11.632333007011315 -6.679342638125199 -67.18618811576798
rradius 43.085436300385595
rwrist 12.083286364187465
rhand -23.649905132356217 -5.764932138138292
rfingers 7.125020000000133
rthumb 3.0532834890908123 -35.92425056076387
lclavicle -9.419489739663538E-16 -8.179286120866791E-16
lhumerus -11.339096482335469 -4.365202936592679 67.95004225746804
lradius 44.513378680415116
lwrist -5.657206656385774
lhand -33.67697223333794 -12.67989152020876
lfingers 7.125020000000125
lthumb -6.955435781371792 16.408098646109316
rfemur -20.981814287041278 4.877445104811043 23.457163447174405
rtibia 35.1113263931709
rfoot -5.847965473548206 -7.910838664018392
rtoes 2.6862600892931168
lfemur 17.677015581514716 -2.5585810097655424 -30.028883995297207
ltibia 29.58858685257887
lfoot -7.991641928061986 -9.647242175740505
ltoes -7.139466219709649
164
root 0 0 0 -1.170214938413705 -2.8444087807999483 -0.8852349006809589
lowerback 10.94510189312734 0.560634177709762 0.4737077150661234
upperback -1.1021485736467087 0.8796952329954261 0.9181602279874914
thorax -7.2782771492227125 0.40447045440735985 0.45258278225402016
lowerneck -13.425779899813518 -1.4191372064050338 0.20273219202874687
upperneck 19.046842628837364 -1.4240533601661198 -2.331494292233855
head 8.21586341327908 -0.8170317497660073 -0.9972079396631495
rclavicle -4.600244395313443E-16 -2.328373496326145E-16
rhumerus -11.735906676770039 -6.748247714837985 -67.25061333291998
rradius 42.98594237951344
rwrist 12.033803921851192
rhand -23.614848693537784 -5.593914319233409
rfingers 7.125020000000133
rthumb 3.088935142519478 -35.75576209644852
lclavicle -9.46950943027757E-16 -8.16155846306035E-16
lhumerus -11.533783968580487 -4.318208017779133 68.0897736930272
lradius 44.357861594560354
lwrist -5.5500871313612175
lhand -33.60994525138306 -12.32280522877909
lfingers 7.125020000000126
lthumb -6.891285445845194 16.764518912278103
rfemur -15.262714547991083 6.155790389394584 26.161822011878993
rtibia 29.99093237826305
rfoot -8.799152931955344 -7.342747116521495
rtoes 2.6095946869437228
lfemur 16.293905085305383 -2.2213133291675096 -29.113920006341516
ltibia 32.57029994762785
lfoot -6.326894628730198 -10.508550967840847
ltoes -7.2618409390397884
165
root 0 0 0 -1.182552434005782 -2.8413940867569063 -0.8984852039576201
lowerback 10.940509599890945 0.5594207400058987 0.47901136951952217
upperback -1.0866270841169552 0.879047752910348 0.9250490052680425
thorax -7.257839157408654 0.4038494846775491 0.45817864562026767
lowerneck -13.461216357453685 -1.4342204456895244 0.1824042854013856
upperneck 19.048281943024858 -1.446341586757549 -2.3017506767028038
head 8.222163172472229 -0.8267491322448466 -0.9862084437770381
rclavicle -4.616909659153808E-16 -2.2276362485207565E-16
rhumerus -11.92541863956368 -6.872945819775378 -67.36894751513186
rradius 42.80386818915912
rwrist 11.943051005285486
rhand -23.55079656434628 -5.279897698695431
rfingers 7.125020000000134
rthumb 3.154353268997231 -35.445751481008315
lclavicle -9.61138952301668E-16 -8.129198222728449E-16
lhumerus -11.955017684352573 -4.216098985961056 68.39144433333907
lradius 44.02116079962909
lwrist -5.31823746830518
lhand -33.464614589186304 -11.54671895936624
lfingers 7.125020000000128
lthumb -6.752497240986191 17.533495201003593
rfemur -3.663097741523421 8.028071713517596 31.28525767436913
rtibia 24.53920308766769
rfoot -13.222325185552469 -5.683675000194381
rtoes 3.3911396735354185
lfemur 10.721047606128499 -1.439730028097193 -25.98593047073657
ltibia 39.78408985460161
lfoot -1.8815087746591157 -12.075356695593024
ltoes -7.051612898362192
166
root 0 0 0 -1.187555971435574 -2.84054853490285 -0.9035244127804284
lowerback 10.938844692442064 0.5591246180877596 0.48169052313174576
upperback -1.0809751783209678 0.879006793527667 0.9275953294561129
thorax -7.2500210709488675 0.40365309727927806 0.460143491408154
lowerneck -13.475227660044498 -1.4400165282342172 0.1746308845619418
upperneck 19.049277678456484 -1.454334049769089 -2.2899458736630924
head 8.224636478358168 -0.8303964501684108 -0.9818986190132338
rclavicle -4.626343378553422E-16 -2.2015964960454529E-16
rhumerus -11.975705994230708 -6.904425804896714 -67.4014512874318
rradius 42.754785393454156
rwrist 11.919038212567674
rhand -23.53388495494122 -5.195780504880125
rfingers 7.125020000000134
rthumb 3.172089370974388 -35.360797345528404
lclavicle -9.700135642661997E-16 -8.119882269335614E-16
lhumerus -12.18699008355863 -4.159305397791989 68.55816973655077
lradius 43.83563515265007
lwrist -5.190545962290198
lhand -33.38408174377026 -11.114633735751314
lfingers 7.125020000000129
lthumb -6.675657059374341 17.955593315247857
rfemur 3.433135143980511 8.720200730452317 34.18032004127757
rtibia 24.35685004984188
rfoot -14.873296490027728 -4.334859322682679
rtoes 4.4874026844782335
lfemur 3.2758251693781215 -0.6150887223169589 -22.193385619449074
ltibia 46.93598483744175
lfoot 2.3924382946326563 -12.998359461442645
ltoes -6.512346372883657
